<svg xmlns="http://www.w3.org/2000/svg" xmlns:xlink="http://www.w3.org/1999/xlink" viewBox="0 0 320.14 320.14"><defs><style>.cls-1{fill:none;}.cls-2{fill:url(#linear-gradient);}.cls-3{fill:#00dcda;}.cls-4{clip-path:url(#clip-path);}.cls-5{fill:url(#linear-gradient-2);}.cls-6{clip-path:url(#clip-path-2);}.cls-7{fill:url(#linear-gradient-3);}.cls-8{clip-path:url(#clip-path-3);}.cls-9{fill:url(#linear-gradient-4);}.cls-10{clip-path:url(#clip-path-4);}.cls-11{fill:url(#linear-gradient-5);}.cls-12{clip-path:url(#clip-path-5);}.cls-13{fill:url(#linear-gradient-6);}.cls-14{clip-path:url(#clip-path-6);}.cls-15{fill:#fff;}</style><linearGradient id="linear-gradient" y1="160.07" x2="320.14" y2="160.07" gradientUnits="userSpaceOnUse"><stop offset="0" stop-color="#4c4e4e"/><stop offset="1" stop-color="#221f1f"/></linearGradient><clipPath id="clip-path"><path class="cls-1" d="M270.12,65a65.1,65.1,0,0,1-65,65h-80v30h80a95.15,95.15,0,0,0,95-95Z"/></clipPath><linearGradient id="linear-gradient-2" x1="-1061.19" y1="475.72" x2="-1060.03" y2="475.72" gradientTransform="translate(-38736.44 -86724.49) rotate(-90) scale(81.87)" gradientUnits="userSpaceOnUse"><stop offset="0" stop-color="#0062ff"/><stop offset="0.65" stop-color="#00b1e7"/><stop offset="1" stop-color="#00dcda"/></linearGradient><clipPath id="clip-path-2"><path class="cls-1" d="M190.09,65a65.11,65.11,0,0,1-65,65v30a95.15,95.15,0,0,0,95-95Z"/></clipPath><linearGradient id="linear-gradient-3" x1="-1061.03" y1="475.44" x2="-1059.86" y2="475.44" gradientTransform="translate(-86649.59 39038.71) rotate(180) scale(81.87)" gradientUnits="userSpaceOnUse"><stop offset="0" stop-color="#00dcda"/><stop offset="0.23" stop-color="#00c0e3"/><stop offset="1" stop-color="#0062ff"/></linearGradient><clipPath id="clip-path-3"><path class="cls-1" d="M125.06,160.07a65.11,65.11,0,0,1,65,65h30a95.15,95.15,0,0,0-95-95Z"/></clipPath><linearGradient id="linear-gradient-4" x1="-1060.7" y1="475.61" x2="-1059.54" y2="475.61" gradientTransform="translate(39112.6 86974.03) rotate(90) scale(81.87)" xlink:href="#linear-gradient-3"/><clipPath id="clip-path-4"><rect class="cls-1" y="130.06" width="125.06" height="30.01"/></clipPath><linearGradient id="linear-gradient-5" x1="-1061.13" y1="475.81" x2="-1059.97" y2="475.81" gradientTransform="translate(118881.17 -53163.75) scale(112.04)" xlink:href="#linear-gradient-2"/><clipPath id="clip-path-5"><rect class="cls-1" x="190.09" y="225.1" width="30.01" height="95.04"/></clipPath><linearGradient id="linear-gradient-6" x1="-1060.56" y1="475.56" x2="-1059.4" y2="475.56" gradientTransform="translate(41190.17 91627.74) rotate(90) scale(86.18)" xlink:href="#linear-gradient-2"/><clipPath id="clip-path-6"><rect class="cls-1" width="320.14" height="320.14"/></clipPath></defs><title>Asset 10</title><g id="Layer_2" data-name="Layer 2"><g id="Layer_1-2" data-name="Layer 1"><rect class="cls-2" width="320.14" height="320.14"/><rect class="cls-3" x="270.12" width="30.01" height="65.03"/><g class="cls-4"><rect class="cls-5" x="125.06" y="65.03" width="175.08" height="95.04"/></g><g class="cls-6"><rect class="cls-7" x="125.06" y="65.03" width="95.04" height="95.04"/></g><g class="cls-8"><rect class="cls-9" x="125.06" y="130.06" width="95.04" height="95.04"/></g><g class="cls-10"><rect class="cls-11" y="130.06" width="125.06" height="30.01"/></g><g class="cls-12"><rect class="cls-13" x="190.09" y="225.1" width="30.01" height="95.04"/></g><g class="cls-14"><path class="cls-15" d="M140.06,145.06a15,15,0,1,1-15-15,15,15,0,0,1,15,15"/><path class="cls-15" d="M220.1,225.1a15,15,0,1,1-15-15,15,15,0,0,1,15,15"/><path class="cls-15" d="M220.1,65a15,15,0,1,1-15-15,15,15,0,0,1,15,15"/></g></g></g></svg>