<svg xmlns="http://www.w3.org/2000/svg" xmlns:xlink="http://www.w3.org/1999/xlink" viewBox="0 0 320.14 320.14"><defs><style>.cls-1{fill:url(#linear-gradient);}.cls-2{fill:#c8ddfe;}.cls-3{fill:#072fac;}.cls-4{fill:#0062fe;}.cls-5{fill:#edf3ff;}</style><linearGradient id="linear-gradient" y1="160.07" x2="320.14" y2="160.07" gradientUnits="userSpaceOnUse"><stop offset="0" stop-color="#4c4e4e"/><stop offset="1" stop-color="#221f1f"/></linearGradient></defs><title>Asset 2</title><g id="Layer_2" data-name="Layer 2"><g id="Layer_1-2" data-name="Layer 1"><rect class="cls-1" width="320.14" height="320.14"/><rect class="cls-2" x="132.48" y="132.48" width="124.17" height="124.17"/><rect class="cls-3" x="132.48" y="146.27" width="20.69" height="20.7"/><polygon class="cls-4" points="153.17 166.97 132.48 146.28 153.17 146.28 153.17 166.97"/><rect class="cls-3" x="153.17" y="146.27" width="20.69" height="20.7"/><polygon class="cls-4" points="173.87 166.97 153.17 146.28 173.87 146.28 173.87 166.97"/><rect class="cls-3" x="173.87" y="146.27" width="20.7" height="20.7"/><polygon class="cls-4" points="194.56 166.97 173.87 146.28 194.56 146.28 194.56 166.97"/><rect class="cls-3" x="194.56" y="146.27" width="20.69" height="20.7"/><polygon class="cls-4" points="215.26 166.97 194.56 146.28 215.26 146.28 215.26 166.97"/><rect class="cls-3" x="215.26" y="146.27" width="20.69" height="20.7"/><polygon class="cls-4" points="235.95 166.97 215.26 146.28 235.95 146.28 235.95 166.97"/><rect class="cls-3" x="235.95" y="146.27" width="20.69" height="20.7"/><polygon class="cls-4" points="256.65 166.97 235.95 146.28 256.65 146.28 256.65 166.97"/><rect class="cls-3" x="132.48" y="180.77" width="20.69" height="20.69"/><polygon class="cls-4" points="153.17 201.46 132.48 180.77 153.17 180.77 153.17 201.46"/><rect class="cls-3" x="153.17" y="180.77" width="20.69" height="20.69"/><polygon class="cls-4" points="173.87 201.46 153.17 180.77 173.87 180.77 173.87 201.46"/><rect class="cls-3" x="173.87" y="180.77" width="20.7" height="20.69"/><polygon class="cls-4" points="194.56 201.46 173.87 180.77 194.56 180.77 194.56 201.46"/><rect class="cls-3" x="194.56" y="180.77" width="20.69" height="20.69"/><polygon class="cls-4" points="215.26 201.46 194.56 180.77 215.26 180.77 215.26 201.46"/><rect class="cls-3" x="215.26" y="180.77" width="20.69" height="20.69"/><polygon class="cls-4" points="235.95 201.46 215.26 180.77 235.95 180.77 235.95 201.46"/><rect class="cls-3" x="235.95" y="180.77" width="20.69" height="20.69"/><polygon class="cls-4" points="256.65 201.46 235.95 180.77 256.65 180.77 256.65 201.46"/><rect class="cls-3" x="132.48" y="215.26" width="20.69" height="20.69"/><polygon class="cls-4" points="153.17 235.95 132.48 215.26 153.17 215.26 153.17 235.95"/><rect class="cls-3" x="153.17" y="215.26" width="20.69" height="20.69"/><polygon class="cls-4" points="173.87 235.95 153.17 215.26 173.87 215.26 173.87 235.95"/><rect class="cls-3" x="173.87" y="215.26" width="20.7" height="20.69"/><polygon class="cls-4" points="194.56 235.95 173.87 215.26 194.56 215.26 194.56 235.95"/><rect class="cls-3" x="194.56" y="215.26" width="20.69" height="20.69"/><polygon class="cls-4" points="215.26 235.95 194.56 215.26 215.26 215.26 215.26 235.95"/><rect class="cls-3" x="215.26" y="215.26" width="20.69" height="20.69"/><polygon class="cls-4" points="235.95 235.95 215.26 215.26 235.95 215.26 235.95 235.95"/><rect class="cls-3" x="235.95" y="215.26" width="20.69" height="20.69"/><polygon class="cls-4" points="256.65 235.95 235.95 215.26 256.65 215.26 256.65 235.95"/><rect class="cls-5" x="63.5" y="63.5" width="68.98" height="193.15"/><line class="cls-4" x1="77.29" y1="77.34" x2="77.29" y2="98.03"/><line class="cls-4" x1="91.09" y1="77.34" x2="91.09" y2="98.03"/><line class="cls-4" x1="104.89" y1="77.34" x2="104.89" y2="98.03"/><line class="cls-4" x1="118.68" y1="77.34" x2="118.68" y2="98.03"/><rect x="70.4" y="77.29" width="6.9" height="20.69"/><rect x="84.19" y="77.29" width="6.9" height="20.69"/><rect x="97.99" y="77.29" width="6.9" height="20.69"/><rect x="111.78" y="77.29" width="6.9" height="20.69"/><line class="cls-4" x1="77.29" y1="111.83" x2="77.29" y2="132.52"/><line class="cls-4" x1="91.09" y1="111.83" x2="91.09" y2="132.52"/><line class="cls-4" x1="104.89" y1="111.83" x2="104.89" y2="132.52"/><rect x="70.4" y="111.78" width="6.9" height="20.7"/><rect x="84.19" y="111.78" width="6.9" height="20.7"/><rect x="97.99" y="111.78" width="6.9" height="20.7"/><rect x="111.78" y="111.78" width="6.9" height="20.7"/><line class="cls-4" x1="77.29" y1="146.32" x2="77.29" y2="167.01"/><line class="cls-4" x1="91.09" y1="146.32" x2="91.09" y2="167.01"/><line class="cls-4" x1="104.89" y1="146.32" x2="104.89" y2="167.01"/><rect x="70.4" y="146.27" width="6.9" height="20.7"/><rect x="84.19" y="146.27" width="6.9" height="20.7"/><rect x="97.99" y="146.27" width="6.9" height="20.7"/><rect x="111.78" y="146.27" width="6.9" height="20.7"/><line class="cls-4" x1="77.29" y1="180.81" x2="77.29" y2="201.5"/><line class="cls-4" x1="91.09" y1="180.81" x2="91.09" y2="201.5"/><line class="cls-4" x1="104.89" y1="180.81" x2="104.89" y2="201.5"/><rect x="70.4" y="180.77" width="6.9" height="20.69"/><rect x="84.19" y="180.77" width="6.9" height="20.69"/><rect x="97.99" y="180.77" width="6.9" height="20.69"/><rect x="111.78" y="180.77" width="6.9" height="20.69"/><line class="cls-4" x1="77.29" y1="215.3" x2="77.29" y2="235.99"/><line class="cls-4" x1="91.09" y1="215.3" x2="91.09" y2="235.99"/><line class="cls-4" x1="104.89" y1="215.3" x2="104.89" y2="235.99"/><rect x="70.4" y="215.26" width="6.9" height="20.69"/><rect x="84.19" y="215.26" width="6.9" height="20.69"/><rect x="97.99" y="215.26" width="6.9" height="20.69"/><rect x="111.78" y="215.26" width="6.9" height="20.69"/></g></g></svg>