<svg xmlns="http://www.w3.org/2000/svg" xmlns:xlink="http://www.w3.org/1999/xlink" viewBox="0 0 320.14 320.14"><defs><style>.cls-1{fill:url(#linear-gradient);}.cls-2{fill:#1062fd;}.cls-3{fill:#77a8fe;}.cls-4{fill:none;stroke:#1062fd;stroke-miterlimit:10;stroke-width:5.69px;}</style><linearGradient id="linear-gradient" y1="160.07" x2="320.14" y2="160.07" gradientUnits="userSpaceOnUse"><stop offset="0" stop-color="#4c4e4e"/><stop offset="1" stop-color="#221f1f"/></linearGradient></defs><title>Asset 3</title><g id="Layer_2" data-name="Layer 2"><g id="Layer_1-2" data-name="Layer 1"><rect class="cls-1" width="320.14" height="320.14"/><rect class="cls-2" x="114.54" y="205.6" width="91.06" height="22.76"/><path class="cls-2" d="M182.84,251.13H137.31a22.77,22.77,0,0,1-22.77-22.77H205.6a22.76,22.76,0,0,1-22.76,22.77"/><path class="cls-2" d="M182.84,251.13a22.77,22.77,0,0,1-45.53,0Z"/><path class="cls-3" d="M228.36,114.54a68.29,68.29,0,1,1-68.29-68.29,68.29,68.29,0,0,1,68.29,68.29"/><rect class="cls-3" x="114.54" y="160.07" width="91.06" height="45.53"/><line class="cls-4" x1="160.07" y1="137.31" x2="160.07" y2="205.6"/><path class="cls-4" d="M182.84,114.54a22.77,22.77,0,1,1-45.53,0"/></g></g></svg>