<svg xmlns="http://www.w3.org/2000/svg" xmlns:xlink="http://www.w3.org/1999/xlink" viewBox="0 0 320.14 320.14"><defs><style>.cls-1{fill:url(#linear-gradient);}.cls-2{fill:#428afb;}.cls-3{fill:#ecf4ff;}</style><linearGradient id="linear-gradient" y1="160.07" x2="320.14" y2="160.07" gradientUnits="userSpaceOnUse"><stop offset="0" stop-color="#4c4e4e"/><stop offset="1" stop-color="#221f1f"/></linearGradient></defs><title>Asset 4</title><g id="Layer_2" data-name="Layer 2"><g id="Layer_1-2" data-name="Layer 1"><rect class="cls-1" width="320.14" height="320.14"/><path class="cls-2" d="M273.34,283.9v-68a22.66,22.66,0,0,0-45.31,0v22.71"/><path class="cls-2" d="M228,283.84v-77a22.65,22.65,0,0,0-45.3,0v31.72"/><path class="cls-2" d="M182.73,283.9v-86a22.66,22.66,0,0,0-45.31,0v40.78"/><path class="cls-2" d="M92.11,320.14V84.54a22.66,22.66,0,1,1,45.31,0V225H273.34v95.15H92.11"/><path class="cls-3" d="M114.76,70.94a13.6,13.6,0,0,1,13.6,13.6V98.13H101.17V84.54a13.6,13.6,0,0,1,13.59-13.6"/><path class="cls-2" d="M46.8,320.14V225a22.66,22.66,0,0,1,45.31,0v95.15Z"/><path class="cls-3" d="M60.39,238.59H74V225a13.6,13.6,0,0,0-27.19,0v13.6Z"/></g></g></svg>