<svg xmlns="http://www.w3.org/2000/svg" xmlns:xlink="http://www.w3.org/1999/xlink" viewBox="0 0 320.14 320.14"><defs><style>.cls-1{fill:none;}.cls-2{fill:url(#linear-gradient);}.cls-3{fill:#fff;}.cls-4{clip-path:url(#clip-path);}.cls-5{fill:#1062fd;}.cls-6{clip-path:url(#clip-path-2);}.cls-7{fill:#4688fe;}.cls-8{clip-path:url(#clip-path-3);}.cls-9{fill:#a5c7fe;}.cls-10{fill:#cfe1fe;}.cls-11{clip-path:url(#clip-path-4);}</style><linearGradient id="linear-gradient" y1="160.07" x2="320.14" y2="160.07" gradientUnits="userSpaceOnUse"><stop offset="0" stop-color="#4c4e4e"/><stop offset="1" stop-color="#221f1f"/></linearGradient><clipPath id="clip-path"><path class="cls-1" d="M55.89,164.83A104.18,104.18,0,1,0,160.07,60.65,104.18,104.18,0,0,0,55.89,164.83"/></clipPath><clipPath id="clip-path-2"><path class="cls-1" d="M103.24,111.28,46.42,164.83l56.82,53.56a83.8,83.8,0,0,0,113.66,0l56.83-53.56L216.9,111.28a83.78,83.78,0,0,0-113.66,0"/></clipPath><clipPath id="clip-path-3"><path class="cls-1" d="M103.24,164.81A56.83,56.83,0,1,0,160.07,108a56.83,56.83,0,0,0-56.83,56.83"/></clipPath><clipPath id="clip-path-4"><path class="cls-1" d="M122.19,164.81a37.89,37.89,0,1,0,37.88-37.89,37.88,37.88,0,0,0-37.88,37.89"/></clipPath></defs><title>Asset 8</title><g id="Layer_2" data-name="Layer 2"><g id="Layer_1-2" data-name="Layer 1"><rect class="cls-2" width="320.14" height="320.14"/><path class="cls-3" d="M216.9,111.28a83.8,83.8,0,0,0-113.66,0L46.42,164.84l56.82,53.55a83.8,83.8,0,0,0,113.66,0l56.83-53.55Z"/><g class="cls-4"><polygon class="cls-5" points="61.36 66.13 160.07 164.84 160.07 28.69 61.36 66.13"/><polygon class="cls-5" points="74.98 249.93 160.07 164.84 160.07 294.18 74.98 249.93"/></g><g class="cls-6"><polygon class="cls-7" points="91.41 96.17 160.07 164.84 160.07 70.12 91.41 96.17"/><polygon class="cls-7" points="100.88 224.03 160.07 164.84 160.07 254.81 100.88 224.03"/></g><g class="cls-8"><path class="cls-9" d="M160.07,108a56.83,56.83,0,1,1-56.83,56.83A56.83,56.83,0,0,1,160.07,108"/><polygon class="cls-10" points="93.77 164.81 160.07 164.81 110.35 214.53 93.77 164.81"/><polygon class="cls-10" points="226.37 164.81 160.07 164.81 207.43 212.16 226.37 164.81"/><polygon class="cls-5" points="207.43 117.45 160.07 164.81 226.37 164.81 207.43 117.45"/><polygon class="cls-5" points="112.72 212.16 160.07 164.81 160.07 226.37 112.72 212.16"/><path class="cls-7" d="M112.72,117.45s47.35,49.72,47.35,47.36V103.24Z"/></g><g class="cls-11"><path d="M160.07,126.92a37.89,37.89,0,1,1-37.88,37.89,37.89,37.89,0,0,1,37.88-37.89"/><polygon class="cls-5" points="207.43 164.81 160.07 164.81 193.22 197.96 207.43 164.81"/></g></g></g></svg>