<svg xmlns="http://www.w3.org/2000/svg" xmlns:xlink="http://www.w3.org/1999/xlink" viewBox="0 0 320.14 320.14"><defs><style>.cls-1{fill:url(#linear-gradient);}.cls-2{fill:#00176e;}.cls-3{fill:#0029a0;}.cls-4{fill:#cae3ff;}.cls-5{fill:#97c9ff;}.cls-6{fill:#5babff;}.cls-7{fill:#0041d3;}.cls-8{fill:#0062ff;}.cls-9{fill:none;stroke:#fff;stroke-miterlimit:10;stroke-width:1.22px;}</style><linearGradient id="linear-gradient" y1="160.07" x2="320.14" y2="160.07" gradientUnits="userSpaceOnUse"><stop offset="0" stop-color="#4c4e4e"/><stop offset="1" stop-color="#221f1f"/></linearGradient></defs><title>Asset 9</title><g id="Layer_2" data-name="Layer 2"><g id="Layer_1-2" data-name="Layer 1"><rect class="cls-1" width="320.14" height="320.14"/><path class="cls-2" d="M85.66,80.91A106.64,106.64,0,0,0,53.8,156.35l107,.75.74-107A106.67,106.67,0,0,0,85.66,80.92"/><path class="cls-3" d="M85.66,80.91a107,107,0,0,0-1,151.32h0L160.8,157.1Z"/><path class="cls-4" d="M237,82A106.67,106.67,0,0,0,161.54,50.1l-.74,107,107,.74A106.69,106.69,0,0,0,237,82"/><path class="cls-5" d="M237,82,160.8,157.1l75.14,76.17A107,107,0,0,0,237,82h0"/><path class="cls-5" d="M160.8,157.1l-.73,107A107,107,0,0,0,267.8,157.83h0Z"/><path class="cls-6" d="M235.94,233.27a106.67,106.67,0,0,0,31.86-75.45l-107-.72Z"/><path class="cls-7" d="M53.8,156.35A107,107,0,0,0,160.05,264.1h0l.73-107Z"/><path class="cls-8" d="M84.62,232.23a106.68,106.68,0,0,0,75.45,31.87l.73-107Z"/><line class="cls-9" x1="205.32" y1="50.39" x2="317.17" y2="51.16"/><line class="cls-9" x1="203.84" y1="264.39" x2="315.7" y2="265.16"/><line class="cls-9" x1="247.82" y1="235.51" x2="315.9" y2="235.98"/><line class="cls-9" x1="248.89" y1="79.88" x2="316.97" y2="80.35"/><line class="cls-9" x1="263.28" y1="109.17" x2="316.77" y2="109.53"/><line class="cls-9" x1="262.61" y1="206.43" x2="316.1" y2="206.79"/></g></g></svg>