<svg xmlns="http://www.w3.org/2000/svg" xmlns:xlink="http://www.w3.org/1999/xlink" viewBox="0 0 151.12 125.39"><defs><style>.cls-1{fill:url(#linear-gradient);}.cls-2{fill:#fff;}.cls-3{fill:url(#linear-gradient-2);}.cls-4{fill:url(#linear-gradient-3);}.cls-5{fill:url(#linear-gradient-4);}.cls-6{fill:url(#linear-gradient-5);}.cls-7{fill:url(#linear-gradient-6);}.cls-8{fill:url(#linear-gradient-7);}.cls-9{fill:url(#linear-gradient-8);}.cls-10{fill:url(#linear-gradient-9);}.cls-11{fill:url(#linear-gradient-10);}</style><linearGradient id="linear-gradient" x1="28.17" y1="66.71" x2="129.95" y2="66.71" gradientUnits="userSpaceOnUse"><stop offset="0" stop-color="#4b4d4d"/><stop offset="1" stop-color="#1e1919"/></linearGradient><linearGradient id="linear-gradient-2" x1="121.19" y1="111.95" x2="148.07" y2="111.95" xlink:href="#linear-gradient"/><linearGradient id="linear-gradient-3" x1="0" y1="84.16" x2="26.88" y2="84.16" xlink:href="#linear-gradient"/><linearGradient id="linear-gradient-4" x1="32.87" y1="9.57" x2="52.01" y2="9.57" xlink:href="#linear-gradient"/><linearGradient id="linear-gradient-5" x1="151.12" y1="38.57" x2="108.78" y2="38.57" xlink:href="#linear-gradient"/><linearGradient id="linear-gradient-6" x1="113.53" y1="38.49" x2="145.06" y2="38.49" gradientUnits="userSpaceOnUse"><stop offset="0" stop-color="#499ed6"/><stop offset="1" stop-color="#007ec5"/></linearGradient><linearGradient id="linear-gradient-7" x1="53.76" y1="66.71" x2="104.36" y2="66.71" xlink:href="#linear-gradient"/><linearGradient id="linear-gradient-8" x1="58.5" y1="50.9" x2="61.67" y2="50.9" xlink:href="#linear-gradient"/><linearGradient id="linear-gradient-9" x1="64.83" y1="50.9" x2="67.99" y2="50.9" xlink:href="#linear-gradient"/><linearGradient id="linear-gradient-10" x1="71.15" y1="50.9" x2="74.32" y2="50.9" xlink:href="#linear-gradient"/></defs><title>Icon. paso 1</title><g id="Layer_2" data-name="Layer 2"><g id="Capa_1" data-name="Capa 1"><circle class="cls-1" cx="79.06" cy="66.71" r="50.89"/><circle class="cls-2" cx="79.06" cy="66.71" r="45.24"/><circle class="cls-3" cx="134.63" cy="111.95" r="13.44"/><circle class="cls-4" cx="13.44" cy="84.16" r="13.44"/><circle class="cls-5" cx="42.44" cy="9.57" r="9.57"/><circle class="cls-6" cx="129.95" cy="38.57" r="21.17"/><path class="cls-7" d="M143.87,48.71a16.2,16.2,0,0,1-6.3,5.13,19.92,19.92,0,0,1-7.92,1.44,16.6,16.6,0,0,1-6.75-1.35,15.21,15.21,0,0,1-5.07-3.6A15.56,15.56,0,0,1,114.64,45a18.72,18.72,0,0,1-1.11-6.56,18.22,18.22,0,0,1,1.25-6.78,15.88,15.88,0,0,1,3.43-5.32,15.46,15.46,0,0,1,5.2-3.43,17.12,17.12,0,0,1,6.55-1.2,16.13,16.13,0,0,1,6.14,1.14,13.49,13.49,0,0,1,4.8,3.29A14.64,14.64,0,0,1,144,31.41a21.2,21.2,0,0,1,1.07,7.06v1.71l-25.79-.08a11.13,11.13,0,0,0,1,3.92,11.45,11.45,0,0,0,2.21,3.29,10.64,10.64,0,0,0,3.2,2.23,9.9,9.9,0,0,0,4,.83,12.92,12.92,0,0,0,5.88-1.21,13.48,13.48,0,0,0,4.31-3.61Zm-4.54-13.05a9.15,9.15,0,0,0-2.64-6.56,9.57,9.57,0,0,0-6.95-2.48,9.83,9.83,0,0,0-10.47,9Z"/><path class="cls-8" d="M101.2,44.57H56.92a3.16,3.16,0,0,0-3.16,3.16v38a3.16,3.16,0,0,0,3.16,3.16H101.2a3.16,3.16,0,0,0,3.16-3.16v-38A3.16,3.16,0,0,0,101.2,44.57Zm0,9.8H56.92V47.73H101.2Z"/><path class="cls-9" d="M58.5,49.31h3.17v3.17H58.5Z"/><path class="cls-10" d="M64.83,49.31H68v3.17H64.83Z"/><path class="cls-11" d="M71.15,49.31h3.17v3.17H71.15Z"/></g></g></svg>