<svg xmlns="http://www.w3.org/2000/svg" xmlns:xlink="http://www.w3.org/1999/xlink" viewBox="0 0 523 226.8"><defs><style>.cls-1{fill:#ed2249;}.cls-2{fill:#030303;}.cls-3{fill:#fff;}.cls-4{fill:url(#linear-gradient);}.cls-5{fill:url(#linear-gradient-2);}.cls-6{fill:url(#linear-gradient-3);}.cls-7{fill:url(#linear-gradient-4);}.cls-8{fill:url(#linear-gradient-5);}.cls-9{fill:url(#linear-gradient-6);}</style><linearGradient id="linear-gradient" x1="347.41" y1="50.77" x2="259.98" y2="50.77" gradientUnits="userSpaceOnUse"><stop offset="0" stop-color="#4d4e4e"/><stop offset="1" stop-color="#221f1f"/></linearGradient><linearGradient id="linear-gradient-2" x1="424.12" y1="50.77" x2="133.17" y2="50.77" gradientUnits="userSpaceOnUse"><stop offset="0" stop-color="#6a9dd3"/><stop offset="1" stop-color="#0e7dc1"/></linearGradient><linearGradient id="linear-gradient-3" x1="313.54" y1="212.14" x2="313.54" y2="134.19" xlink:href="#linear-gradient"/><linearGradient id="linear-gradient-4" x1="286.88" y1="212.14" x2="286.88" y2="134.19" xlink:href="#linear-gradient"/><linearGradient id="linear-gradient-5" x1="338.3" y1="4.62" x2="310.99" y2="43.83" xlink:href="#linear-gradient"/><linearGradient id="linear-gradient-6" x1="307.69" y1="26.62" x2="337.21" y2="26.62" xlink:href="#linear-gradient-2"/></defs><title>Title</title><g id="Layer_2" data-name="Layer 2"><g id="Full_Inclusion" data-name="Full Inclusion"><path class="cls-1" d="M6.63,211.73a.47.47,0,0,1,.33.1.42.42,0,0,1,.13.34v.41A.49.49,0,0,1,7,213a.43.43,0,0,1-.33.12H3.87V226a.42.42,0,0,1-.13.35.44.44,0,0,1-.32.12H2.83c-.28,0-.41-.16-.41-.47V213.07h-2A.43.43,0,0,1,.13,213a.49.49,0,0,1-.13-.37v-.41a.42.42,0,0,1,.13-.34.47.47,0,0,1,.33-.1h2v-2.56a4.92,4.92,0,0,1,.33-1.88,4.41,4.41,0,0,1,.93-1.45,3.88,3.88,0,0,1,1.41-.92,4.65,4.65,0,0,1,1.77-.33.49.49,0,0,1,.36.13.5.5,0,0,1,.14.35v.54a.37.37,0,0,1-.14.32.42.42,0,0,1-.31.11,3.27,3.27,0,0,0-1.19.22,2.59,2.59,0,0,0-1,.68,3.34,3.34,0,0,0-.64,1.13,5.23,5.23,0,0,0-.24,1.63v2Z"/><path class="cls-1" d="M33.51,224.67l0-.79a7.25,7.25,0,0,1-.95,1.17,5.94,5.94,0,0,1-1.18.88,5.79,5.79,0,0,1-1.41.57,7,7,0,0,1-4.36-.34,6.42,6.42,0,0,1-2.12-1.44,6.57,6.57,0,0,1-1.39-2.16,6.82,6.82,0,0,1-.5-2.64v-9.07a.51.51,0,0,1,.14-.41.49.49,0,0,1,.38-.15h.48a.48.48,0,0,1,.39.13.76.76,0,0,1,.1.42V220a5.49,5.49,0,0,0,1.46,3.63,5.07,5.07,0,0,0,3.86,1.61,5,5,0,0,0,1.91-.37,5.17,5.17,0,0,0,2.77-2.65,5.17,5.17,0,0,0,.46-2V210.7a.36.36,0,0,1,.4-.41h.66a.37.37,0,0,1,.42.41v15.23c0,.36-.15.54-.47.54H34c-.33,0-.49-.15-.49-.46Z"/><path class="cls-1" d="M50.54,205.94a.36.36,0,0,1,.41-.4h.66c.28,0,.42.13.42.4v20.14c0,.26-.13.39-.41.39H51q-.42,0-.42-.39Z"/><path class="cls-1" d="M67.77,205.94a.36.36,0,0,1,.41-.4h.66c.28,0,.42.13.42.4v20.14c0,.26-.13.39-.41.39h-.66q-.42,0-.42-.39Z"/><path class="cls-1" d="M104.35,205.73a1.09,1.09,0,0,1,.07-.39.36.36,0,0,1,.29-.18h.92c.17,0,.27.08.31.19a1,1,0,0,1,.06.38v.49a.65.65,0,0,1-.12.47.72.72,0,0,1-.46.1H105a.9.9,0,0,1-.47-.09.36.36,0,0,1-.14-.32Zm.08,5.1a.36.36,0,0,1,.4-.41h.68c.27,0,.4.13.4.41v15.23c0,.27-.13.41-.39.41h-.66c-.29,0-.43-.14-.43-.41Z"/><path class="cls-1" d="M122.27,210.89a.45.45,0,0,1,.14-.35.49.49,0,0,1,.34-.12h.52a.45.45,0,0,1,.35.13.56.56,0,0,1,.12.34v1.87A5.59,5.59,0,0,1,125,211.4a6.31,6.31,0,0,1,1.41-.82,5.92,5.92,0,0,1,1.43-.41,8.69,8.69,0,0,1,1.3-.1,6.42,6.42,0,0,1,2.66.53,6,6,0,0,1,2.06,1.46,6.51,6.51,0,0,1,1.32,2.16,7.34,7.34,0,0,1,.47,2.62v9.07a.55.55,0,0,1-.14.42.49.49,0,0,1-.36.14h-.47a.5.5,0,0,1-.39-.13.67.67,0,0,1-.1-.42v-9.11a6.22,6.22,0,0,0-.4-1.94,5.28,5.28,0,0,0-1-1.68,4.83,4.83,0,0,0-3.73-1.64,5.31,5.31,0,0,0-1.92.36,5.4,5.4,0,0,0-1.67,1,5.16,5.16,0,0,0-1.2,1.56,4.71,4.71,0,0,0-.5,2v9.55c0,.27-.13.41-.38.41h-.67a.36.36,0,0,1-.4-.41v-3.51a.49.49,0,0,1,0-.15Z"/><path class="cls-1" d="M163.26,213.34l-.06.07a.18.18,0,0,1-.11,0,.44.44,0,0,1-.24-.14c-.1-.1-.26-.25-.49-.44a4.57,4.57,0,0,0-.89-.59,6.14,6.14,0,0,0-1.35-.52,6.85,6.85,0,0,0-1.86-.23,6.36,6.36,0,0,0-2.58.55,7.21,7.21,0,0,0-3.67,3.68,6.7,6.7,0,0,0,0,5.34,7,7,0,0,0,1.46,2.21,7.18,7.18,0,0,0,2.15,1.5,6.08,6.08,0,0,0,2.6.56,6.92,6.92,0,0,0,1.24-.1,5.89,5.89,0,0,0,1.08-.28,6.38,6.38,0,0,0,.95-.44c.3-.17.59-.36.88-.56l.22-.17.27-.2.24-.17a.4.4,0,0,1,.19-.07.38.38,0,0,1,.26.15,4.55,4.55,0,0,1,.31.47.54.54,0,0,1,.1.26s0,.06-.06.1a.22.22,0,0,1,.06.13,3.35,3.35,0,0,1-.82.74,8.43,8.43,0,0,1-2.21,1.14,7.52,7.52,0,0,1-2.61.42,8,8,0,0,1-2.19-.29,8.18,8.18,0,0,1-2-.85,8.54,8.54,0,0,1-1.69-1.3,8.2,8.2,0,0,1-1.32-1.69,8.38,8.38,0,0,1-.86-2,8.25,8.25,0,0,1,0-4.41,8.28,8.28,0,0,1,.86-2,7.65,7.65,0,0,1,1.32-1.68,8.43,8.43,0,0,1,3.68-2.16,8.45,8.45,0,0,1,2.19-.3,7.38,7.38,0,0,1,1.49.15,9.49,9.49,0,0,1,1.41.4,8.59,8.59,0,0,1,1.26.6,9.25,9.25,0,0,1,1.1.76h0l0,0a2,2,0,0,1,.21.19.26.26,0,0,1,.09.22.53.53,0,0,1-.16.32Z"/><path class="cls-1" d="M178.68,205.94a.36.36,0,0,1,.41-.4h.66c.28,0,.42.13.42.4v20.14c0,.26-.13.39-.41.39h-.66q-.42,0-.42-.39Z"/><path class="cls-1" d="M207.76,224.67l0-.79a7.25,7.25,0,0,1-.95,1.17,5.94,5.94,0,0,1-1.18.88,5.63,5.63,0,0,1-1.41.57,7,7,0,0,1-4.36-.34,6.42,6.42,0,0,1-2.12-1.44,6.74,6.74,0,0,1-1.39-2.16,7,7,0,0,1-.5-2.64v-9.07a.55.55,0,0,1,.14-.41.49.49,0,0,1,.38-.15h.48a.48.48,0,0,1,.39.13.69.69,0,0,1,.1.42V220a5.44,5.44,0,0,0,1.47,3.63,5.16,5.16,0,0,0,1.66,1.18,5.25,5.25,0,0,0,2.19.43,5,5,0,0,0,1.91-.37,5.17,5.17,0,0,0,2.77-2.65,5.17,5.17,0,0,0,.46-2V210.7a.36.36,0,0,1,.4-.41h.67a.37.37,0,0,1,.42.41v15.23q0,.54-.48.54h-.51c-.34,0-.5-.15-.5-.46Z"/><path class="cls-1" d="M223.84,223.12c0-.05,0-.08,0-.12s0-.08,0-.11a.3.3,0,0,1,.09-.24.74.74,0,0,1,.23-.14l.49-.22.1,0h.09a.22.22,0,0,1,.18.11q.08.12.15.27c0,.11.08.22.11.35a1.92,1.92,0,0,0,.14.32,2.56,2.56,0,0,0,.7.91,4.26,4.26,0,0,0,1,.63,4.93,4.93,0,0,0,1.08.37,4.84,4.84,0,0,0,1,.12,5.87,5.87,0,0,0,1.29-.17,5.3,5.3,0,0,0,1.35-.54,3.59,3.59,0,0,0,1.06-1,2.53,2.53,0,0,0,.43-1.47,2.27,2.27,0,0,0-.39-1.33,3.29,3.29,0,0,0-1-1,6,6,0,0,0-1.35-.65,14.35,14.35,0,0,0-1.48-.42,11.44,11.44,0,0,1-1.82-.61,6.76,6.76,0,0,1-1.55-.92,4.51,4.51,0,0,1-1.08-1.24,3.23,3.23,0,0,1-.4-1.59,4.4,4.4,0,0,1,.36-1.81,4,4,0,0,1,1-1.39,4.56,4.56,0,0,1,1.59-.89,6.6,6.6,0,0,1,2.06-.31,5.77,5.77,0,0,1,1.7.24,4.69,4.69,0,0,1,1.39.66,4.49,4.49,0,0,1,1.08,1,6.29,6.29,0,0,1,.77,1.37l0,0a.41.41,0,0,1,.08.19.34.34,0,0,1-.1.22,1.29,1.29,0,0,1-.25.2,1.16,1.16,0,0,1-.27.14.76.76,0,0,1-.21.05.41.41,0,0,1-.21-.05.47.47,0,0,1-.14-.14.9.9,0,0,1-.11-.22l-.14-.29a4.35,4.35,0,0,0-1.43-1.4,4,4,0,0,0-2.16-.55,5.11,5.11,0,0,0-1.31.17,3.43,3.43,0,0,0-1.12.54,2.75,2.75,0,0,0-.77.92,2.67,2.67,0,0,0-.29,1.29,1.83,1.83,0,0,0,.38,1.13,3.76,3.76,0,0,0,1,.86,6.46,6.46,0,0,0,1.21.59,9,9,0,0,0,1.18.36l.13,0h0a12,12,0,0,1,2.1.69,6.65,6.65,0,0,1,1.63,1,4.3,4.3,0,0,1,1,1.34,3.94,3.94,0,0,1,.37,1.71,4,4,0,0,1-.46,1.95,4.42,4.42,0,0,1-1.24,1.45,5.85,5.85,0,0,1-1.8.9,7.19,7.19,0,0,1-2.14.31,6.68,6.68,0,0,1-1.8-.24,5.47,5.47,0,0,1-1.57-.71,4.94,4.94,0,0,1-1.21-1.16A4.44,4.44,0,0,1,223.84,223.12Z"/><path class="cls-1" d="M249.52,205.73a.91.91,0,0,1,.07-.39.32.32,0,0,1,.28-.18h.92c.17,0,.27.08.31.19a1,1,0,0,1,.06.38v.49c0,.24,0,.4-.12.47a.72.72,0,0,1-.46.1h-.46a.9.9,0,0,1-.47-.09.36.36,0,0,1-.13-.32Zm.07,5.1a.36.36,0,0,1,.4-.41h.68a.36.36,0,0,1,.41.41v15.23a.36.36,0,0,1-.4.41H250c-.29,0-.43-.14-.43-.41Z"/><path class="cls-1" d="M266.41,218.45a8.46,8.46,0,0,1,.3-2.2,8.25,8.25,0,0,1,.85-2,7.91,7.91,0,0,1,1.31-1.68,8.33,8.33,0,0,1,3.67-2.16,8.25,8.25,0,0,1,4.41,0,8.11,8.11,0,0,1,2,.85,8.29,8.29,0,0,1,1.7,1.31,7.91,7.91,0,0,1,1.31,1.68,8.25,8.25,0,0,1,.85,2,8.05,8.05,0,0,1,.29,2.2,8.07,8.07,0,0,1-1.14,4.21,8.51,8.51,0,0,1-1.31,1.69,8.66,8.66,0,0,1-1.7,1.31,8.49,8.49,0,0,1-2,.84,8.25,8.25,0,0,1-4.41,0,8.45,8.45,0,0,1-5-3.84,8.18,8.18,0,0,1-.85-2A8.56,8.56,0,0,1,266.41,218.45Zm1.53,0a6.61,6.61,0,0,0,.24,1.79,7,7,0,0,0,.68,1.64,7.18,7.18,0,0,0,1.05,1.41,6.44,6.44,0,0,0,1.37,1.09,6.91,6.91,0,0,0,1.62.72,6.24,6.24,0,0,0,1.79.25,6.59,6.59,0,0,0,2.66-.54,6.91,6.91,0,0,0,2.19-1.47,7,7,0,0,0,1.49-2.18,6.81,6.81,0,0,0,0-5.34,7.24,7.24,0,0,0-1.45-2.21,6.87,6.87,0,0,0-2.16-1.52,6.28,6.28,0,0,0-2.65-.57,6.54,6.54,0,0,0-2.66.56,6.74,6.74,0,0,0-2.18,1.5,7.39,7.39,0,0,0-1.46,2.21A6.66,6.66,0,0,0,267.94,218.45Z"/><path class="cls-1" d="M298.14,210.89a.45.45,0,0,1,.14-.35.49.49,0,0,1,.34-.12h.52a.46.46,0,0,1,.35.13.56.56,0,0,1,.12.34v1.87a5.59,5.59,0,0,1,1.23-1.36,6.48,6.48,0,0,1,1.4-.82,6.13,6.13,0,0,1,1.44-.41,8.69,8.69,0,0,1,1.3-.1,6.42,6.42,0,0,1,2.66.53,6,6,0,0,1,2.06,1.46,6.85,6.85,0,0,1,1.32,2.16,7.34,7.34,0,0,1,.47,2.62v9.07a.59.59,0,0,1-.14.42.51.51,0,0,1-.36.14h-.47a.49.49,0,0,1-.39-.13.67.67,0,0,1-.1-.42v-9.11a6.22,6.22,0,0,0-.4-1.94,5.28,5.28,0,0,0-1-1.68,4.83,4.83,0,0,0-3.74-1.64,5.26,5.26,0,0,0-1.91.36,5.4,5.4,0,0,0-1.67,1,5,5,0,0,0-1.2,1.56,4.71,4.71,0,0,0-.5,2v9.55c0,.27-.13.41-.39.41h-.66a.36.36,0,0,1-.4-.41v-3.51a.49.49,0,0,1,0-.15Z"/><path class="cls-2" d="M20.25,90.53v15.12H12.73V90.89L.38,64.9H8.64l7.74,16.28L24.05,64.9h8.26Zm0,0L32.31,64.9Z"/><path class="cls-2" d="M80.93,69.57a21.69,21.69,0,1,1-30.68,30.67A21.69,21.69,0,1,1,80.93,69.57ZM65.6,70.66a14.25,14.25,0,0,0,0,28.49A14.22,14.22,0,0,0,79.84,84.91a14.19,14.19,0,0,0-4.17-10A14,14,0,0,0,65.6,70.66Z"/><path class="cls-2" d="M107.65,64.53V88.41c0,2.34-.07,4.68.73,6.36a7.05,7.05,0,0,0,2.63,3,6.65,6.65,0,0,0,7.09.15,6.8,6.8,0,0,0,2.63-2.56c1.1-1.75.94-4.16.94-6.57V64.53h7.53V88.78c0,3.43,0,6.86-2,10.37a14.83,14.83,0,0,1-5.33,5.26,14,14,0,0,1-7.16,1.9,13.69,13.69,0,0,1-7.75-2.27A14.22,14.22,0,0,1,101.59,98c-1.61-3.29-1.46-6.5-1.46-9.64a14.14,14.14,0,0,0,.07-1.68V64.53Zm0,0h0Z"/><path class="cls-2" d="M170.89,64.6v40.9l-6.5-6.79L149,82.86v22.57h-7.45V64.6L148,71.39l15.42,15.85V64.6Zm-7.45,0h0Z"/><path class="cls-2" d="M204.76,84.69h22.65v.07a21,21,0,0,1-6,15.34,22.16,22.16,0,0,1-15.78,6.5,20.86,20.86,0,0,1-15.34-6.36,21.69,21.69,0,0,1,0-30.67,21.78,21.78,0,0,1,25.2-4,20.68,20.68,0,0,1,7.74,6.64l-6.06,4.39a14.54,14.54,0,0,0-5-4.31,13.52,13.52,0,0,0-6.5-1.61,13.94,13.94,0,0,0-10,4.24,14.21,14.21,0,0,0,10,24.25,14.81,14.81,0,0,0,10.45-4.31,16.13,16.13,0,0,0,2-2.56l-13.37-.14Zm0,0v0Z"/><path class="cls-2" d="M12.92,143.65H24.81v8H12.92v9.78h16v8.05H4.94V125.35H28.87v8H12.92Zm0-10.32v0Z"/><path class="cls-2" d="M74.15,125.5v43.81l-7-7.28-16.5-17v24.16h-8V125.5l7,7.28,16.5,17V125.5Zm-8,0h0Z"/><path class="cls-2" d="M88,125.43h24.88v8h-8.61v36.05h-8V133.41H88Zm0,0v0Z"/><path class="cls-2" d="M153.58,169.46h-9.3l-8.92-14.94h-1.17v14.94h-8v-44h8v.07h3.75a14.08,14.08,0,0,1,10.25,4.22,14.74,14.74,0,0,1,4.3,10.25,14,14,0,0,1-4.3,10.25,14.14,14.14,0,0,1-4.3,3Zm-19.39-23h3.75a6.4,6.4,0,0,0,6.5-6.49,6.58,6.58,0,0,0-1.88-4.61,6.33,6.33,0,0,0-4.62-1.88h-3.75Z"/><path class="cls-2" d="M174.14,143.65H186v8H174.14v9.78h16v8.05H166.16V125.35H190.1v8h-16Zm0-10.32v0Z"/><path class="cls-2" d="M211.91,125.43v.07h3.76a14.07,14.07,0,0,1,10.24,4.22,14.74,14.74,0,0,1,4.3,10.25,14.68,14.68,0,0,1-14.54,14.55h-3.76v14.94h-8v-44Zm-8,0h0Zm8,8v13h3.76a6.4,6.4,0,0,0,6.49-6.49,6.58,6.58,0,0,0-1.88-4.61,6.32,6.32,0,0,0-4.61-1.88Z"/><path class="cls-2" d="M270.16,169.46h-9.3l-8.92-14.94h-1.17v14.94h-8v-44h8v.07h3.75a14,14,0,0,1,10.24,4.22A14.75,14.75,0,0,1,269.07,140a14.68,14.68,0,0,1-8.6,13.22Zm-19.39-23h3.75A6.39,6.39,0,0,0,261,140a6.61,6.61,0,0,0-1.87-4.61,6.33,6.33,0,0,0-4.62-1.88h-3.75Z"/><path class="cls-2" d="M290.72,143.65h11.89v8H290.72v9.78h15.95v8.05H282.74V125.35h23.93v8H290.72Zm0-10.32v0Z"/><path class="cls-2" d="M352,125.5v43.81L345,162l-16.5-17v24.16h-8V125.5l6.95,7.28,16.51,17V125.5Zm-8,0h0Z"/><path class="cls-2" d="M373.75,143.65h11.89v8H373.75v9.78h16v8.05H365.77V125.35h23.94v8h-16Zm0-10.32v0Z"/><path class="cls-2" d="M412,125.43V151c0,2.5-.07,5,.78,6.81a7.56,7.56,0,0,0,2.82,3.21,7.19,7.19,0,0,0,7.59.15,7.36,7.36,0,0,0,2.81-2.73c1.18-1.88,1-4.46,1-7v-26h8.06v26c0,3.67,0,7.35-2.19,11.1a15.79,15.79,0,0,1-5.71,5.63,15,15,0,0,1-7.67,2,14.63,14.63,0,0,1-8.29-2.42,15.27,15.27,0,0,1-5.71-6.49c-1.72-3.52-1.56-7-1.56-10.33a16.09,16.09,0,0,0,.07-1.79v-23.7Zm0,0h0Z"/><path class="cls-2" d="M475.64,169.46h-9.31l-8.91-14.94h-1.18v14.94h-8v-44h8v.07H460a14.07,14.07,0,0,1,10.24,4.22,14.74,14.74,0,0,1,4.3,10.25,14.63,14.63,0,0,1-8.6,13.22Zm-19.4-23H460a6.4,6.4,0,0,0,6.49-6.49,6.58,6.58,0,0,0-1.88-4.61,6.32,6.32,0,0,0-4.61-1.88h-3.76Z"/><rect class="cls-2" x="1.18" y="182.61" width="521.82" height="3.04"/><path class="cls-3" d="M3.52,38.46V10h8.87c3.76,0,6.57.55,8.41,1.65s2.78,2.93,2.78,5.49a9.87,9.87,0,0,1-.08,1.22,6.73,6.73,0,0,1-.35,1.37,5.55,5.55,0,0,1-.72,1.39,5.73,5.73,0,0,1-1.24,1.21,6.22,6.22,0,0,1-1.86.92,7,7,0,0,1,4,2.45,7.11,7.11,0,0,1,1.39,4.47,7.17,7.17,0,0,1-2.84,6.13c-1.89,1.41-4.52,2.12-7.87,2.12ZM8.78,21.78h4.5q5.22,0,5.22-4A3.17,3.17,0,0,0,17,14.74a10.23,10.23,0,0,0-4.78-.84H8.78Zm0,12.88h4.56q6,0,6.05-4.74a3.87,3.87,0,0,0-1.52-3.43,8.25,8.25,0,0,0-4.67-1H8.78Z"/><path class="cls-3" d="M37.93,38.87a9.45,9.45,0,0,1-7.45-3.07,11.71,11.71,0,0,1-2.71-8.07q0-5.16,2.71-8.14c1.81-2,4.37-3,7.66-3a9.51,9.51,0,0,1,7.48,3,11.73,11.73,0,0,1,2.71,8.08,11.6,11.6,0,0,1-2.74,8.12A9.82,9.82,0,0,1,37.93,38.87ZM38.07,35A4.4,4.4,0,0,0,42,33.12a9.47,9.47,0,0,0,1.3-5.39A9.45,9.45,0,0,0,42,22.32,4.48,4.48,0,0,0,38,20.46a4.43,4.43,0,0,0-3.89,1.87,9.35,9.35,0,0,0-1.31,5.42,9.26,9.26,0,0,0,1.32,5.37A4.46,4.46,0,0,0,38.07,35Z"/><path class="cls-3" d="M61.29,38.87a9.45,9.45,0,0,1-7.45-3.07,11.71,11.71,0,0,1-2.72-8.07,11.64,11.64,0,0,1,2.72-8.14q2.71-3,7.66-3a9.51,9.51,0,0,1,7.48,3,11.73,11.73,0,0,1,2.71,8.08A11.65,11.65,0,0,1,69,35.85,9.82,9.82,0,0,1,61.29,38.87ZM61.42,35a4.39,4.39,0,0,0,3.88-1.89,9.39,9.39,0,0,0,1.3-5.39,9.38,9.38,0,0,0-1.3-5.41,5,5,0,0,0-7.8,0,9.35,9.35,0,0,0-1.31,5.42,9.26,9.26,0,0,0,1.32,5.37A4.44,4.44,0,0,0,61.42,35Z"/><path class="cls-3" d="M83.82,38.75a11,11,0,0,1-3.62-.51,4.8,4.8,0,0,1-2.26-1.62A6.89,6.89,0,0,1,76.79,34a17,17,0,0,1-.34-3.72V20.22H73l.19-2.75,3.65-.33,1.63-5.78,3.1,0v5.8h5.3v3.08h-5.3V30.39a6.31,6.31,0,0,0,.7,3.45,2.89,2.89,0,0,0,2.58,1,15.6,15.6,0,0,0,2.37-.19l.13,3.64-.47.09-.84.16-1,.12C84.57,38.73,84.18,38.75,83.82,38.75Z"/><path class="cls-3" d="M99.36,38.87A9.9,9.9,0,0,1,91.75,36Q89,33.05,89,27.63c0-3.49,1-6.2,2.86-8.12a10.13,10.13,0,0,1,7.54-2.89,11.66,11.66,0,0,1,6.32,1.61l-1.2,3.62a10.77,10.77,0,0,0-4.91-1.37,4.92,4.92,0,0,0-4.06,1.84,8.4,8.4,0,0,0-1.49,5.37,8.61,8.61,0,0,0,1.47,5.43A5,5,0,0,0,99.69,35a9.83,9.83,0,0,0,5.37-1.65l.49,3.86a9.61,9.61,0,0,1-2.77,1.28A13.19,13.19,0,0,1,99.36,38.87Z"/><path class="cls-3" d="M114.69,38.87a6.94,6.94,0,0,1-4.8-1.64,6,6,0,0,1-1.84-4.73,5.68,5.68,0,0,1,2.18-4.91,13.19,13.19,0,0,1,6.55-2l1.3-.16,1.57-.15,1.38-.14V24a3.84,3.84,0,0,0-.89-2.82,3.73,3.73,0,0,0-2.72-.89A18.81,18.81,0,0,0,111,21.74s-.22-.63-.64-1.77-.62-1.72-.64-1.74a20.41,20.41,0,0,1,8.15-1.61q4.3,0,6.27,1.87t2,6.06V38.46h-3.76c0-.05-.15-.49-.43-1.3s-.4-1.25-.4-1.3a12.09,12.09,0,0,1-3.12,2.28A8.55,8.55,0,0,1,114.69,38.87Zm1.38-3.61a5.49,5.49,0,0,0,3.07-.85,4.9,4.9,0,0,0,1.87-2V28.26l-1,.07-1,.08a10.65,10.65,0,0,0-4.52,1.16A3.14,3.14,0,0,0,113,32.45a2.68,2.68,0,0,0,.8,2.08A3.21,3.21,0,0,0,116.07,35.26Z"/><path class="cls-3" d="M130.9,38.46V17.14H135l.58,2.72q.39-.49.75-.87a8.76,8.76,0,0,1,1-.85,6.74,6.74,0,0,1,1.34-.79,9.09,9.09,0,0,1,1.74-.52,11.16,11.16,0,0,1,2.22-.21,7.14,7.14,0,0,1,4.07,1,5.77,5.77,0,0,1,2.14,2.4,7.54,7.54,0,0,1,3-2.54,9,9,0,0,1,4.05-.89c2.45,0,4.24.69,5.39,2.07S163,22.13,163,24.84V38.46h-5.1V26.35a10.82,10.82,0,0,0-.69-4.51,2.65,2.65,0,0,0-2.63-1.38,4.41,4.41,0,0,0-4.26,2.67,9.25,9.25,0,0,0-.74,2.86V38.46h-5.08V26.12a9.16,9.16,0,0,0-.76-4.25A2.82,2.82,0,0,0,141,20.48a4.75,4.75,0,0,0-2.78.81,5.19,5.19,0,0,0-1.76,2.14,21.18,21.18,0,0,0-.45,4.69V38.46Z"/><path class="cls-3" d="M167.72,47.32V17.14h4.36l.55,3a7.11,7.11,0,0,1,2.78-2.61,8.07,8.07,0,0,1,3.87-.92,7.6,7.6,0,0,1,4.61,1.45,9.07,9.07,0,0,1,3,4,15,15,0,0,1,1,5.67,12.87,12.87,0,0,1-2.39,8.06,7.75,7.75,0,0,1-6.49,3.12,8.16,8.16,0,0,1-3.66-.81,7.93,7.93,0,0,1-2.74-2.18c.1,1.86.15,2.91.15,3.14v8ZM178,35a4.13,4.13,0,0,0,3.58-1.9,9.57,9.57,0,0,0,1.31-5.44,9.09,9.09,0,0,0-1.32-5.39,4.28,4.28,0,0,0-3.66-1.8q-5.06,0-5.11,6.86,0,4,1.31,5.81A4.46,4.46,0,0,0,178,35Z"/><path class="cls-4" d="M262.39,101.54a2.48,2.48,0,0,1-1.2-.32A2.43,2.43,0,0,1,260,99.13V2.41A2.41,2.41,0,0,1,263.61.33l82.6,48.35a2.41,2.41,0,0,1,0,4.17l-82.6,48.36A2.4,2.4,0,0,1,262.39,101.54Z"/><polygon class="cls-5" points="264.81 6.62 264.81 94.92 340.22 50.77 264.81 6.62"/><circle class="cls-6" cx="313.54" cy="90.86" r="9.84"/><path class="cls-7" d="M291.4,59V77.85h-9V59l-17-27.09h9.52l12,19.6,12-19.6h9.48Z"/><circle class="cls-8" cx="322.98" cy="26.61" r="19.82"/><path class="cls-9" d="M336.1,36.19a15.19,15.19,0,0,1-5.9,4.8,18.61,18.61,0,0,1-7.42,1.35,15.43,15.43,0,0,1-6.32-1.26,14.27,14.27,0,0,1-4.75-3.37,14.71,14.71,0,0,1-3-5,17.52,17.52,0,0,1-1-6.14,16.81,16.81,0,0,1,1.17-6.35,14.63,14.63,0,0,1,3.21-5A14.35,14.35,0,0,1,316.94,12a16,16,0,0,1,6.14-1.13A15.36,15.36,0,0,1,328.83,12a12.55,12.55,0,0,1,4.49,3.08A13.77,13.77,0,0,1,336.21,20a19.76,19.76,0,0,1,1,6.62v1.6l-24.16-.08A10.23,10.23,0,0,0,314,31.8,10.59,10.59,0,0,0,316,34.88,9.6,9.6,0,0,0,319,37a9,9,0,0,0,3.77.78,11.94,11.94,0,0,0,5.5-1.13,12.52,12.52,0,0,0,4-3.38ZM331.85,24a8.57,8.57,0,0,0-2.47-6.14,8.94,8.94,0,0,0-6.51-2.32,9.22,9.22,0,0,0-9.81,8.41Z"/></g></g></svg>